<svg width="15" height="15" viewBox="0 0 15 15" fill="none" xmlns="http://www.w3.org/2000/svg">
<path d="M12.5 4.375H2.5C1.80964 4.375 1.25 4.93464 1.25 5.625V11.875C1.25 12.5654 1.80964 13.125 2.5 13.125H12.5C13.1904 13.125 13.75 12.5654 13.75 11.875V5.625C13.75 4.93464 13.1904 4.375 12.5 4.375Z" stroke="black" stroke-linecap="round" stroke-linejoin="round"/>
<path d="M10 13.125V3.125C10 2.79348 9.8683 2.47554 9.63388 2.24112C9.39946 2.0067 9.08152 1.875 8.75 1.875H6.25C5.91848 1.875 5.60054 2.0067 5.36612 2.24112C5.1317 2.47554 5 2.79348 5 3.125V13.125" stroke="black" stroke-linecap="round" stroke-linejoin="round"/>
</svg>
