<svg width="20" height="18" viewBox="0 0 20 18" fill="none" xmlns="http://www.w3.org/2000/svg">
<path d="M13.9691 11.9786L15.0802 10.8674C15.2538 10.6938 15.5559 10.8153 15.5559 11.0653V16.1141C15.5559 17.0342 14.8093 17.7808 13.8892 17.7808H1.6667C0.746544 17.7808 0 17.0342 0 16.1141V3.89158C0 2.97142 0.746544 2.22487 1.6667 2.22487H11.1634C11.41 2.22487 11.535 2.52349 11.3614 2.70058L10.2502 3.81171C10.1981 3.8638 10.1287 3.89158 10.0523 3.89158H1.6667V16.1141H13.8892V12.173C13.8892 12.1001 13.917 12.0306 13.9691 11.9786ZM19.4067 4.97146L10.2884 14.0897L7.14946 14.4369C6.23972 14.5376 5.4654 13.7703 5.56609 12.8536L5.91332 9.71462L15.0316 0.596367C15.8267 -0.198789 17.1115 -0.198789 17.9032 0.596367L19.4032 2.0964C20.1984 2.89156 20.1984 4.17978 19.4067 4.97146ZM15.976 6.0444L13.9586 4.027L7.50711 10.482L7.25363 12.7494L9.52104 12.4959L15.976 6.0444ZM18.2261 3.27698L16.7261 1.77695C16.5837 1.63458 16.351 1.63458 16.2122 1.77695L15.1392 2.84989L17.1566 4.86729L18.2296 3.79435C18.3685 3.64852 18.3685 3.41934 18.2261 3.27698Z" fill="#005274"/>
</svg>
