<svg width="15" height="15" viewBox="0 0 15 15" fill="none" xmlns="http://www.w3.org/2000/svg">
<path d="M13.4301 10.3251V12.2001C13.4308 12.3741 13.3951 12.5464 13.3254 12.7059C13.2557 12.8654 13.1534 13.0086 13.0251 13.1262C12.8969 13.2439 12.7454 13.3335 12.5805 13.3893C12.4157 13.445 12.2409 13.4657 12.0676 13.4501C10.1443 13.2411 8.29695 12.5839 6.67383 11.5313C5.16372 10.5717 3.88341 9.29142 2.92383 7.78131C1.86757 6.15081 1.21023 4.29443 1.00508 2.36256C0.98946 2.18973 1.01 2.01554 1.06539 1.85108C1.12078 1.68662 1.20981 1.53549 1.32681 1.40732C1.4438 1.27916 1.58621 1.17675 1.74495 1.10664C1.90369 1.03652 2.07529 1.00022 2.24883 1.00006H4.12383C4.42715 0.997075 4.7212 1.10448 4.95118 1.30227C5.18116 1.50005 5.33138 1.77471 5.37383 2.07506C5.45297 2.6751 5.59973 3.26426 5.81133 3.83131C5.89542 4.05501 5.91362 4.29813 5.86377 4.53186C5.81392 4.76559 5.69812 4.98013 5.53008 5.15006L4.73633 5.94381C5.62605 7.50853 6.92161 8.80409 8.48633 9.69381L9.28008 8.90006C9.45001 8.73202 9.66455 8.61622 9.89828 8.56637C10.132 8.51652 10.3751 8.53472 10.5988 8.61881C11.1659 8.8304 11.755 8.97717 12.3551 9.05631C12.6587 9.09914 12.936 9.25206 13.1342 9.48599C13.3324 9.71993 13.4377 10.0185 13.4301 10.3251Z" stroke="black" stroke-linecap="round" stroke-linejoin="round"/>
</svg>
